<svg width="52" height="60" viewBox="0 0 52 60" fill="none" xmlns="http://www.w3.org/2000/svg">
<path d="M26.0862 29.2156C31.7762 29.2156 36.4052 24.6428 36.4052 19.022C36.4052 13.4011 31.7762 8.82833 26.0862 8.82833C20.3963 8.82833 15.7673 13.4011 15.7673 19.022C15.7673 24.6428 20.3963 29.2156 26.0862 29.2156ZM26.0862 11.4919C30.2891 11.4919 33.7088 14.8701 33.7088 19.022C33.7088 23.1738 30.2891 26.552 26.0862 26.552C21.8834 26.552 18.4636 23.1738 18.4636 19.022C18.463 14.8695 21.8827 11.4919 26.0862 11.4919ZM37.2722 33.813C37.4856 33.3794 37.6265 32.9439 37.7473 32.566C37.9003 32.0867 38.0452 31.634 38.2747 31.3403C38.4828 31.0731 38.8069 30.8716 39.2941 30.7072C39.4411 30.6575 39.5914 30.6124 39.7417 30.5667C40.3356 30.3864 41.008 30.1822 41.6368 29.734C42.4756 29.1354 43.0333 28.2663 43.2077 27.2859C43.3654 26.3989 43.1883 25.6114 43.0319 24.9166L43.0071 24.8073C42.8823 24.2497 42.8239 23.8341 42.9192 23.4827C42.9923 23.2123 43.1567 22.9445 43.4507 22.6143L43.6473 22.3962C44.4606 21.4966 45.5746 20.2656 45.2786 18.4313C45.0854 17.2321 44.3552 16.4412 43.7687 15.8062C43.5157 15.5324 43.2762 15.2732 43.1145 15.0206C42.9427 14.7535 42.8595 14.4452 42.8655 14.1051C42.8709 13.8287 42.948 13.5005 43.0299 13.1525C43.0963 12.8728 43.1641 12.5837 43.2104 12.2695C43.3628 11.2374 43.2077 10.3172 42.7487 9.53434C42.2951 8.76071 41.5683 8.17006 40.5879 7.77893C40.2806 7.65696 39.9866 7.56813 39.7028 7.48195C39.3739 7.38251 39.0639 7.28904 38.8196 7.16375C38.5217 7.01128 38.2848 6.78191 38.1345 6.50017C37.9869 6.22241 37.8748 5.87305 37.756 5.50248C37.4426 4.52468 37.0527 3.30822 35.7281 2.55581L35.7254 2.56046C34.4134 1.79611 33.0935 2.08316 32.1285 2.29396C31.6017 2.40865 31.1051 2.51803 30.7293 2.4471C30.3065 2.36755 29.9549 2.07189 29.4174 1.59591C28.9933 1.2207 28.5128 0.795111 27.8941 0.476248C27.0552 0.0433631 26.0809 -0.0673441 25.1514 0.160699C24.2549 0.382113 23.5858 0.898525 22.9967 1.42422C22.9222 1.49051 22.8484 1.55746 22.7745 1.62508C22.4793 1.89356 22.2008 2.14812 21.9317 2.28999C21.6498 2.43914 21.3049 2.49947 20.9566 2.45903C20.6902 2.42853 20.4064 2.37086 20.1057 2.31054C19.032 2.09442 17.5617 1.7981 16.1558 2.78982C15.0741 3.5535 14.7245 4.64599 14.444 5.52436C14.3037 5.96321 14.1708 6.37753 13.9749 6.66126C13.7011 7.05702 13.2461 7.22142 12.4663 7.47797C12.0798 7.60525 11.6416 7.7491 11.2094 7.95527C10.3048 8.38749 9.60358 9.10211 9.2345 9.96722C8.80435 10.9762 8.92916 11.9798 9.06069 12.6474C9.09424 12.8164 9.13182 12.9855 9.1694 13.1532C9.27476 13.6199 9.36535 14.0223 9.32845 14.3696C9.29288 14.7057 9.11706 14.9934 8.97614 15.1751C8.81777 15.3786 8.6339 15.5808 8.43862 15.7956C7.75011 16.5513 6.89316 17.4913 6.84484 18.9875L6.84954 19.0717C6.88108 20.0449 7.25956 20.9557 7.97558 21.779C8.12389 21.9501 8.28159 22.1151 8.43929 22.2802C8.71509 22.5692 8.97547 22.8424 9.13317 23.1102C9.30563 23.4025 9.37274 23.7724 9.32375 24.151C9.29355 24.3836 9.2345 24.6382 9.17209 24.9074C9.05197 25.4251 8.91641 26.0111 8.93185 26.6628C8.95466 27.6379 9.32845 28.5488 9.98273 29.2282C10.7115 29.984 11.608 30.3022 12.3912 30.5408L12.4422 30.5567C12.9441 30.7099 13.4179 30.8544 13.6917 31.093C13.934 31.3045 14.1118 31.5849 14.2527 31.9767C14.3138 32.1464 14.3668 32.3194 14.4205 32.4924C14.5366 32.8663 14.6668 33.276 14.8627 33.6877L0 48.3719L8.61779 50.5317L10.8041 59.0449L26.003 44.0272L41.1952 59.035L43.3856 50.5231L52 48.3633L37.2722 33.813ZM13.2381 28.0125L13.1877 27.9972C12.6032 27.8189 12.1905 27.6558 11.9362 27.3926C11.7476 27.1971 11.6356 26.9094 11.6282 26.6024C11.6208 26.2829 11.708 25.9037 11.8013 25.5033C11.8751 25.1845 11.9516 24.855 11.9986 24.4944C12.1241 23.5364 11.9342 22.5692 11.4644 21.7731C11.1517 21.2414 10.7538 20.8244 10.4021 20.4565C10.2726 20.3206 10.1438 20.1854 10.0217 20.0455C9.71364 19.6915 9.56399 19.3607 9.54788 19.0067C9.58882 18.542 9.88811 18.1887 10.4431 17.5795C10.6645 17.3368 10.8934 17.0856 11.1162 16.7986C11.6215 16.1469 11.9308 15.4038 12.0107 14.65C12.0932 13.8711 11.9389 13.183 11.802 12.5771C11.7698 12.4326 11.7362 12.2874 11.708 12.1422C11.606 11.6238 11.6101 11.2619 11.7208 11.0033C11.8671 10.6606 12.1623 10.4617 12.3845 10.3563C12.6596 10.2244 12.9804 10.1197 13.3193 10.0077C14.2467 9.70272 15.4009 9.32287 16.2008 8.16873C16.6229 7.55951 16.8316 6.90654 17.0161 6.3298C17.2389 5.63374 17.3919 5.19489 17.7241 4.96088C18.1341 4.67184 18.5777 4.72422 19.5682 4.92375C19.9104 4.9927 20.2648 5.06429 20.6446 5.10804C21.5344 5.21146 22.4437 5.04507 23.2074 4.64002C23.7771 4.33773 24.2153 3.93866 24.6025 3.58665L24.8045 3.40435C25.185 3.06494 25.5011 2.82297 25.8051 2.74806C26.095 2.67713 26.3929 2.70961 26.6472 2.84087C26.966 3.00527 27.2827 3.28569 27.6183 3.58267C28.2531 4.14483 29.0436 4.84487 30.2247 5.06694C31.1447 5.2393 31.9761 5.05832 32.7103 4.8979C33.5095 4.72289 33.9806 4.63538 34.3604 4.86011L34.3839 4.86807C34.7792 5.0928 34.9382 5.5396 35.1852 6.30991C35.3274 6.7534 35.4885 7.25589 35.7475 7.74314C36.1555 8.50947 36.7883 9.12797 37.5775 9.53168C38.0399 9.76835 38.5049 9.90889 38.9143 10.0322C39.1538 10.1044 39.3807 10.1727 39.5779 10.2516C40.1316 10.4723 40.3208 10.7117 40.4141 10.8714C40.5631 11.1253 40.604 11.4581 40.5409 11.8883C40.5107 12.0918 40.4584 12.3153 40.4027 12.5513C40.298 12.9961 40.1792 13.5005 40.1685 14.0567C40.1517 14.9159 40.3826 15.7425 40.8355 16.4492C41.1241 16.8987 41.4703 17.2732 41.775 17.604C42.2542 18.1231 42.5508 18.4605 42.6145 18.8529C42.6997 19.3819 42.3816 19.7983 41.6348 20.6236L41.4261 20.8556C40.851 21.5006 40.4973 22.1165 40.3134 22.7946C40.0631 23.7181 40.194 24.5845 40.3732 25.3833L40.3987 25.496C40.5154 26.0138 40.6161 26.4606 40.551 26.8252C40.4986 27.1188 40.3228 27.3847 40.0571 27.5749C39.79 27.7652 39.3813 27.8891 38.9485 28.0211C38.77 28.0754 38.5928 28.1291 38.419 28.1881C37.4225 28.5249 36.6763 29.0247 36.1374 29.7161C35.6167 30.3844 35.3818 31.1176 35.1751 31.7652C34.9315 32.5276 34.7745 32.9697 34.3812 33.1931L34.3631 33.2097C34.0068 33.4205 33.5954 33.3595 32.7418 33.1706C32.2184 33.0553 31.6379 32.932 30.9836 32.9306C29.3617 32.9479 28.3182 33.8614 27.4794 34.5952C27.3747 34.6867 27.2693 34.7788 27.1626 34.8703C26.7425 35.2283 26.0956 35.5644 25.397 35.1328C25.1286 34.9671 24.8609 34.7291 24.5777 34.4772C23.9798 33.9456 23.2362 33.284 22.135 33.0314C21.164 32.8093 20.2654 33.0042 19.544 33.1613C18.9938 33.2813 18.5187 33.3841 18.1408 33.2972C17.8516 33.2309 17.5872 33.038 17.4148 32.7676C17.2409 32.4944 17.1235 32.1152 16.9987 31.7142C16.9336 31.5047 16.8678 31.2952 16.794 31.0897C16.4994 30.267 16.0686 29.6167 15.4781 29.1003C14.7688 28.4791 13.9199 28.2206 13.2381 28.0125ZM41.1677 48.3308L39.7504 53.8403L26.0037 40.2598L12.2516 53.8483L10.837 48.3401L5.26046 46.9427L16.7363 35.6062C16.99 35.7288 17.255 35.8262 17.5295 35.8899C18.5019 36.1133 19.4024 35.9184 20.1252 35.7613C20.6741 35.642 21.1485 35.5379 21.5264 35.6254C21.9297 35.7182 22.2639 36.0013 22.7752 36.456C23.1154 36.7583 23.5006 37.101 23.9684 37.3901C24.6273 37.7971 25.3467 37.998 26.0708 37.998C27.0606 37.998 28.0592 37.6234 28.9235 36.8876C29.0402 36.7881 29.155 36.688 29.2691 36.5879C30.0113 35.9383 30.426 35.5995 31.0145 35.5929C31.342 35.5757 31.7373 35.6764 32.1547 35.7692C33.021 35.9608 34.1772 36.2141 35.3617 35.6917L46.7422 46.9347L41.1677 48.3308Z" fill="#FB285E"/>
</svg>
