<svg width="50" height="51" viewBox="0 0 50 51" fill="none" xmlns="http://www.w3.org/2000/svg">
<path d="M50 25.4199C50 19.5743 47.9241 13.9019 44.1562 9.44573C44.1554 9.44484 44.1554 9.44395 44.1545 9.44306C44.1536 9.44217 44.1527 9.44217 44.1527 9.44129C44.1509 9.43951 44.15 9.43773 44.1482 9.43596C39.3848 3.78489 32.4054 0.544922 25 0.544922C17.5947 0.544922 10.6152 3.78578 5.85357 9.43418L5.85268 9.43507C5.85 9.43773 5.84643 9.43862 5.84375 9.44217C5.84018 9.44573 5.84018 9.45106 5.83661 9.4555C2.07321 13.9117 0 19.5787 0 25.4199C0 31.1838 2.03214 36.8055 5.72143 41.2475C5.72232 41.2484 5.72321 41.2493 5.72411 41.2502C10.492 46.9981 17.5161 50.2949 24.9991 50.2949C28.9339 50.2949 32.8214 49.3594 36.2937 47.604C37.583 49.0325 38.5509 49.9404 38.6759 50.0559C38.8473 50.2158 39.0661 50.2949 39.2848 50.2949C39.5036 50.2949 39.7223 50.2158 39.8937 50.0559C40.3071 49.673 49.9991 40.5874 49.9991 32.527C49.9991 31.5596 49.8571 30.6259 49.6134 29.733C49.8679 28.3374 50 26.8884 50 25.4199ZM6.58036 39.4343C3.675 35.6569 2.01071 31.0612 1.825 26.3083H11.3696C11.4643 29.5163 12.0723 32.6416 13.1429 35.5858C10.7902 36.5843 8.59107 37.8752 6.58036 39.4343ZM6.70357 11.2456C8.70714 12.7807 10.892 14.0494 13.2223 15.0293C12.1009 18.0382 11.4679 21.2427 11.3705 24.5315H1.825C2.01339 19.6986 3.72054 15.0461 6.70357 11.2456ZM24.1063 33.1782C20.8955 33.2706 17.7616 33.8614 14.7634 34.9373C13.7929 32.2161 13.2446 29.3164 13.1536 26.3083H24.1063V33.1782ZM13.1536 24.5315C13.2464 21.439 13.8205 18.4611 14.8429 15.6742C17.8062 16.7323 20.9143 17.3124 24.1063 17.403V24.5315H13.1536ZM25.892 3.19322C29.6411 6.06273 32.5643 9.77266 34.4482 14.0369C31.708 15.0035 28.8375 15.5365 25.892 15.6263V3.19322ZM24.1063 15.6263C21.1446 15.5365 18.2598 14.9991 15.5071 14.0245C17.3723 9.80997 20.2866 6.09649 24.1063 3.179V15.6263ZM24.1063 34.955V47.6599C20.2196 44.6927 17.2741 40.8975 15.4143 36.5923C18.2045 35.5956 21.1196 35.0465 24.1063 34.955ZM25.892 34.9701C26.9027 35.0021 27.9089 35.0838 28.9054 35.2233C29.4188 37.4176 30.475 39.6075 31.7161 41.6064C30.0946 43.8878 28.1384 45.9 25.892 47.6235V34.9701ZM28.6107 33.3994C27.708 33.2902 26.8027 33.2209 25.892 33.1933V26.3083H30.6C29.3286 28.0611 28.5705 30.2057 28.5705 32.527C28.5705 32.8167 28.5866 33.1081 28.6107 33.3994ZM32.2214 24.5315H25.892V17.403C29.0696 17.3115 32.1643 16.7359 35.1161 15.6858C35.8902 17.7771 36.4071 19.9607 36.6598 22.203C34.9893 22.625 33.4768 23.4326 32.2214 24.5315ZM38.4205 21.9099C38.1473 19.5423 37.5955 17.236 36.775 15.0284C39.0982 14.0556 41.2839 12.7878 43.2964 11.2447C46.2786 15.0444 47.9866 19.6978 48.175 24.5315H46.3482C44.4598 22.8782 41.992 21.8663 39.2848 21.8663C38.9938 21.8663 38.7071 21.8868 38.4205 21.9099ZM47.9696 26.3083H48.1741C48.1714 26.3936 48.167 26.4789 48.1625 26.5641C48.1018 26.4753 48.0321 26.3945 47.9696 26.3083ZM42.1562 9.87749C40.2875 11.3024 38.2625 12.476 36.108 13.3813C34.2571 9.16677 31.4509 5.46306 27.875 2.50471C33.3509 3.18167 38.408 5.77667 42.1562 9.87749ZM22.1205 2.5056C18.5384 5.48261 15.7384 9.21119 13.892 13.384C11.7312 12.4725 9.70446 11.2971 7.84286 9.87838C11.5893 5.77844 16.6455 3.18345 22.1205 2.5056ZM7.70804 40.8113C9.57679 39.3668 11.617 38.1683 13.8009 37.2382C15.6446 41.498 18.4777 45.3066 22.1214 48.3351C16.575 47.6502 11.4705 45.001 7.70804 40.8113ZM27.8938 48.3387C29.7286 46.8195 31.3625 45.104 32.7777 43.21C33.5464 44.3098 34.3411 45.3252 35.0902 46.2198C32.8312 47.3063 30.3973 48.0268 27.8938 48.3387ZM39.2848 48.1619C37.1813 46.0519 30.3563 38.7298 30.3563 32.527C30.3563 27.6284 34.3616 23.6431 39.2848 23.6431C44.208 23.6431 48.2134 27.6284 48.2134 32.527C48.2134 38.7227 41.3875 46.051 39.2848 48.1619ZM39.2848 27.1967C36.3304 27.1967 33.9277 29.5874 33.9277 32.527C33.9277 35.4667 36.3304 37.8574 39.2848 37.8574C42.2393 37.8574 44.642 35.4667 44.642 32.527C44.642 29.5874 42.2393 27.1967 39.2848 27.1967ZM39.2848 36.0806C37.3152 36.0806 35.7134 34.4868 35.7134 32.527C35.7134 30.5672 37.3152 28.9735 39.2848 28.9735C41.2545 28.9735 42.8563 30.5672 42.8563 32.527C42.8563 34.4868 41.2545 36.0806 39.2848 36.0806Z" fill="#FB285E"/>
</svg>
