<svg width="55" height="56" viewBox="0 0 55 56" fill="none" xmlns="http://www.w3.org/2000/svg">
<path d="M24.2917 13.5615C24.0197 13.5615 23.7539 13.6407 23.5278 13.789C23.3017 13.9374 23.1254 14.1482 23.0213 14.3949C22.9173 14.6416 22.89 14.913 22.9431 15.1749C22.9962 15.4368 23.1271 15.6774 23.3194 15.8662C23.5117 16.055 23.7567 16.1836 24.0234 16.2356C24.2902 16.2877 24.5666 16.261 24.8179 16.1588C25.0691 16.0566 25.2839 15.8836 25.4349 15.6616C25.586 15.4396 25.6667 15.1786 25.6667 14.9115C25.6667 14.5535 25.5218 14.2101 25.2639 13.9569C25.0061 13.7037 24.6563 13.5615 24.2917 13.5615ZM32.5417 13.5615C32.2697 13.5615 32.0039 13.6407 31.7778 13.789C31.5516 13.9374 31.3754 14.1482 31.2713 14.3949C31.1673 14.6416 31.14 14.913 31.1931 15.1749C31.2462 15.4368 31.3771 15.6774 31.5694 15.8662C31.7617 16.055 32.0067 16.1836 32.2734 16.2356C32.5401 16.2877 32.8166 16.261 33.0679 16.1588C33.3191 16.0566 33.5339 15.8836 33.6849 15.6616C33.836 15.4396 33.9167 15.1786 33.9167 14.9115C33.9167 14.5535 33.7718 14.2101 33.5139 13.9569C33.2561 13.7037 32.9063 13.5615 32.5417 13.5615ZM29.3333 18.0616H31.1667C31.1667 18.7778 30.8769 19.4645 30.3612 19.9709C29.8455 20.4773 29.146 20.7617 28.4167 20.7617C27.6873 20.7617 26.9879 20.4773 26.4721 19.9709C25.9564 19.4645 25.6667 18.7778 25.6667 18.0616H27.5C27.5 18.3004 27.5966 18.5293 27.7685 18.6981C27.9404 18.8669 28.1736 18.9617 28.4167 18.9617C28.6598 18.9617 28.8929 18.8669 29.0649 18.6981C29.2368 18.5293 29.3333 18.3004 29.3333 18.0616ZM53.9321 32.4747L45.65 33.8311C45.1049 33.9213 44.5838 34.1177 44.1173 34.4089L43.483 32.8356C43.2333 32.2085 42.8775 31.6273 42.4307 31.1166L42.6699 28.9835C42.7314 28.441 42.7638 27.8958 42.7671 27.35C42.7655 25.3554 42.3504 23.3821 41.547 21.5502C40.7587 19.7367 40.4013 17.7709 40.502 15.8017L40.6597 12.6516C40.6679 12.4572 40.6771 12.2646 40.6771 12.0809C40.6777 10.4752 40.3509 8.88563 39.7161 7.40583C39.0812 5.92602 38.1511 4.58597 36.9805 3.46463C35.8099 2.34329 34.4225 1.46336 32.9002 0.876699C31.3778 0.290032 29.7513 0.00849948 28.1164 0.0486918C26.4815 0.0888841 24.8713 0.449988 23.3808 1.11072C21.8902 1.77146 20.5495 2.71845 19.4375 3.89591C18.3255 5.07336 17.4649 6.45744 16.9062 7.96658C16.3476 9.47573 16.1022 11.0794 16.1847 12.6831L16.3405 15.7882C16.3497 16.0114 16.3579 16.2328 16.3579 16.4551C16.3612 18.2053 15.9996 19.9377 15.2955 21.5457C14.2706 23.8877 13.8839 26.4513 14.1735 28.9844L14.4118 31.0887C14.1352 31.4068 13.8922 31.7518 13.6868 32.1183L12.4291 29.042C12.2948 28.7088 12.0932 28.4058 11.8363 28.1512C11.5794 27.8967 11.2726 27.6959 10.9345 27.561C10.5963 27.4261 10.2339 27.3599 9.86896 27.3664C9.50405 27.3729 9.14427 27.452 8.81135 27.5989C8.47843 27.7457 8.17928 27.9573 7.93197 28.2208C7.68467 28.4844 7.49433 28.7944 7.37247 29.1322C7.25061 29.47 7.19975 29.8285 7.22296 30.1861C7.24617 30.5437 7.34297 30.893 7.50751 31.2129L7.68351 31.5585H5.88226C5.17055 31.5575 4.46872 31.3949 3.83168 31.0833L2.91502 30.6333C2.60732 30.483 2.2656 30.4123 1.9223 30.4281C1.579 30.4439 1.24551 30.5456 0.953474 30.7235C0.66144 30.9014 0.420555 31.1496 0.253685 31.4446C0.0868151 31.7396 -0.000503723 32.0716 1.66716e-05 32.409V34.9498C-0.00176745 35.4515 0.139678 35.9437 0.408311 36.3706C0.676944 36.7974 1.06201 37.1417 1.51985 37.3646L3.01218 38.0972C3.90375 38.5335 4.8861 38.7612 5.88226 38.7623H6.41668V41.4273L5.75851 49.8327C5.71606 50.3725 5.78771 50.915 5.96895 51.4263C6.1502 51.9375 6.43713 52.4065 6.81173 52.8037C7.18634 53.2009 7.64053 53.5178 8.14579 53.7345C8.65106 53.9512 9.19649 54.063 9.74785 54.0629C9.79001 54.0629 9.82851 54.0521 9.86976 54.0512C9.88076 54.0512 9.88993 54.0566 9.90093 54.0566H9.9101C9.9816 54.0566 10.0531 54.0629 10.1237 54.0629C10.8804 54.063 11.619 53.8348 12.2392 53.4092C12.8595 52.9835 13.3315 52.381 13.5914 51.6832L17.7824 44.0329C18.0277 45.1751 18.529 46.2494 19.25 47.1776V54.0629H21.0833V46.8626C21.0835 46.6518 21.0082 46.4476 20.8707 46.2857C19.8125 45.0364 19.3024 43.4259 19.4523 41.8077C19.6022 40.1896 20.3997 38.6958 21.67 37.6544L20.4967 36.2702C20.0231 36.6614 19.5971 37.1051 19.2271 37.5923C18.7312 38.2377 18.3397 38.9545 18.0666 39.7173L13.75 47.5934V36.659L15.0526 33.4738C15.2709 32.9309 15.5989 32.437 16.0169 32.022C16.4466 31.5936 16.9583 31.253 17.5226 31.0196C18.0869 30.7862 18.6927 30.6647 19.305 30.6621H22.3722L27.6118 40.0935C27.6907 40.2355 27.807 40.354 27.9487 40.4366C28.0903 40.5191 28.252 40.5627 28.4167 40.5627C28.5814 40.5627 28.7431 40.5191 28.8847 40.4366C29.0263 40.354 29.1427 40.2355 29.2215 40.0935L31.1667 36.5915V48.6627C31.1666 48.8702 31.2396 49.0713 31.3732 49.232C31.5069 49.3927 31.693 49.5032 31.9 49.5447L35.75 50.3007V54.0629H37.5833V50.6607L41.0667 51.3448C41.127 51.3568 41.1884 51.3628 41.25 51.3628H42.9843L43.1603 51.6841C43.4239 52.3818 43.8985 52.9836 44.5205 53.4089C45.1425 53.8341 45.8821 54.0623 46.64 54.0629C46.8425 54.064 47.0446 54.0474 47.2441 54.0133C47.8905 53.9054 48.4961 53.6312 48.9993 53.2185C49.5026 52.8058 49.8854 52.2695 50.1087 51.6643L52.5516 51.2647C52.9632 51.1978 53.3391 50.9943 53.6163 50.6881C53.8936 50.382 54.0555 49.9917 54.0751 49.5825L54.2584 49.5447C54.467 49.5049 54.655 49.3951 54.7903 49.2342C54.9255 49.0733 54.9997 48.8713 55 48.6627V33.3622C55 33.2314 54.9709 33.1023 54.9149 32.9837C54.8588 32.8651 54.7772 32.7599 54.6755 32.6754C54.5739 32.591 54.4547 32.5293 54.3263 32.4946C54.198 32.4599 54.0634 32.4532 53.9321 32.4747ZM45.947 35.6059L53.1667 34.4251V35.3251L46.4943 36.6356L44.825 36.9623H44.1833C44.337 36.6085 44.5793 36.2987 44.8876 36.0616C45.196 35.8244 45.5604 35.6677 45.947 35.6059ZM24.3558 30.4758C24.7455 30.3067 25.0768 30.0302 25.3095 29.6798C25.5422 29.3295 25.6663 28.9203 25.6667 28.502V25.747C27.4567 26.3002 29.3766 26.3002 31.1667 25.747V28.502C31.1674 28.92 31.2917 29.3288 31.5243 29.6788C31.757 30.0288 32.0881 30.305 32.4775 30.474L31.3729 32.4621H25.4604L24.3558 30.4758ZM28.4167 24.3619C26.4724 24.3597 24.6084 23.6004 23.2336 22.2506C21.8588 20.9007 21.0855 19.0706 21.0833 17.1616V13.1322C22.734 11.9612 24.0909 10.436 25.0507 8.67256C28.155 11.1131 31.834 12.7487 35.75 13.4292V17.1616C35.7478 19.0706 34.9745 20.9007 33.5997 22.2506C32.2249 23.6004 30.3609 24.3597 28.4167 24.3619ZM40.8219 32.0544C41.2371 32.4645 41.5608 32.9549 41.7725 33.4945L42.1758 34.4944C41.6817 34.1576 41.1185 33.931 40.5258 33.8302L33.3557 32.6601L34.4612 30.6621H37.5192C38.1371 30.6621 38.7485 30.7855 39.3163 31.0249C39.8841 31.2642 40.3964 31.6145 40.8219 32.0544ZM41.3417 36.9623L39.6733 36.6347L33 35.3242V34.4242L40.2206 35.605C40.6071 35.667 40.9714 35.8239 41.2796 36.0612C41.5878 36.2985 41.8299 36.6085 41.9833 36.9623H41.3417ZM3.83168 36.4871L2.34027 35.7544C2.18803 35.6797 2.05997 35.5649 1.97044 35.4228C1.88091 35.2807 1.83344 35.1169 1.83335 34.9498V32.409C1.83338 32.3784 1.8414 32.3482 1.85664 32.3214C1.87188 32.2946 1.89384 32.2721 1.92043 32.256C1.94944 32.2385 1.98265 32.2289 2.01668 32.2281C2.0455 32.2283 2.07384 32.2354 2.09918 32.2488L3.01585 32.6988C3.90646 33.134 4.88749 33.361 5.88226 33.3622H9.16668C9.32295 33.3622 9.47664 33.3231 9.61316 33.2484C9.74968 33.1738 9.8645 33.0661 9.9467 32.9356C10.0289 32.8051 10.0758 32.6561 10.0828 32.5029C10.0899 32.3496 10.0569 32.1971 9.9871 32.0598L9.14743 30.4119C9.09703 30.3095 9.06803 30.1983 9.06215 30.0848C9.05628 29.9712 9.07364 29.8577 9.11321 29.7509C9.15279 29.644 9.21377 29.5461 9.29256 29.4628C9.37135 29.3795 9.46635 29.3126 9.57194 29.2659C9.67753 29.2193 9.79157 29.1939 9.90732 29.1913C10.0231 29.1887 10.1382 29.2089 10.2458 29.2507C10.3535 29.2925 10.4515 29.355 10.5342 29.4347C10.6168 29.5143 10.6823 29.6094 10.7268 29.7143L11.9167 32.6349V36.9623H5.88226C5.17055 36.9613 4.46872 36.7987 3.83168 36.4871ZM11.9167 38.7623V40.5624H8.25001V38.7623H11.9167ZM7.58635 49.9704L8.18218 42.3625H11.9167V50.1342C11.9157 50.6986 11.6869 51.2396 11.2803 51.6386C10.8738 52.0376 10.3227 52.2621 9.74785 52.2628C9.44909 52.2628 9.15356 52.2022 8.8798 52.0847C8.60604 51.9673 8.35996 51.7955 8.157 51.5803C7.95404 51.365 7.79858 51.1109 7.70038 50.8339C7.60218 50.5569 7.56336 50.2629 7.58635 49.9704ZM16.0958 29.7197L15.9903 28.7909C15.737 26.5679 16.0766 24.3183 16.9758 22.263C17.7789 20.43 18.191 18.455 18.1867 16.4596C18.1867 16.2139 18.1775 15.9682 18.1674 15.7144L18.0107 12.5994C17.9417 11.2363 18.1512 9.87353 18.6268 8.59116C19.1023 7.3088 19.8344 6.13281 20.7798 5.13242C21.7252 4.13202 22.8649 3.32744 24.1318 2.76605C25.3987 2.20465 26.7672 1.89777 28.1567 1.86349C29.5462 1.8292 30.9287 2.0682 32.2227 2.56641C33.5167 3.06462 34.6962 3.81198 35.6916 4.76449C36.687 5.71699 37.4783 6.8554 38.0188 8.11269C38.5594 9.36998 38.8383 10.7207 38.8392 12.0854C38.8392 12.2421 38.8309 12.4068 38.8218 12.6003L38.6668 15.7126C38.5528 17.9548 38.9603 20.1931 39.8585 22.2576C40.5642 23.866 40.9291 25.5986 40.931 27.35C40.9278 27.8311 40.899 28.3118 40.8448 28.79L40.7403 29.7206C39.7627 29.1602 38.6513 28.864 37.5192 28.862H33.3667C33.2699 28.8606 33.1774 28.8222 33.109 28.755C33.0405 28.6878 33.0014 28.597 33 28.502V24.9442C34.3917 24.1552 35.5478 23.0209 36.3522 21.655C37.1566 20.2891 37.5812 18.7395 37.5833 17.1616V12.6615C37.5833 12.4448 37.5037 12.2353 37.359 12.0716C37.2144 11.9079 37.0144 11.801 36.7959 11.7704C32.7697 11.2074 28.9823 9.5558 25.8573 7.0003L25.3376 6.57369C25.2314 6.48656 25.1065 6.42418 24.9722 6.39122C24.8379 6.35826 24.6978 6.35558 24.5623 6.38337C24.4269 6.41117 24.2996 6.46873 24.19 6.55172C24.0804 6.63472 23.9914 6.741 23.9296 6.8626L23.5748 7.56012C22.6767 9.32154 21.3267 10.8229 19.6579 11.9162C19.5329 11.9981 19.4304 12.1089 19.3592 12.2389C19.2881 12.3688 19.2506 12.5139 19.25 12.6615V17.1616C19.2521 18.7395 19.6767 20.2891 20.4811 21.655C21.2856 23.0209 22.4416 24.1552 23.8333 24.9442V28.502C23.8319 28.597 23.7928 28.6878 23.7244 28.755C23.6559 28.8222 23.5635 28.8606 23.4667 28.862H19.305C18.1777 28.8668 17.0712 29.1613 16.0958 29.7161V29.7197ZM28.4167 37.7831L26.4605 34.2622H30.3728L28.4167 37.7831ZM33 37.1603L40.3333 38.6003V49.3647L33 47.9246V37.1603ZM42.1667 38.7623H44V49.5627H42.1667V38.7623ZM46.9333 52.2412C46.5608 52.3077 46.1764 52.2578 45.8344 52.0984C45.4923 51.939 45.2098 51.6783 45.0267 51.3529C45.0514 51.3529 45.0762 51.3529 45.1009 51.3448L47.0012 50.9721C47.1978 51.3338 47.5211 51.6132 47.9114 51.7588C47.6403 52.0099 47.3003 52.1775 46.9333 52.2412ZM52.25 49.4889L48.5833 50.0892V46.7438C48.5825 46.6791 48.6053 46.6162 48.6477 46.5667C48.6901 46.5171 48.7493 46.4842 48.8143 46.4738L51.931 45.9644C51.9469 45.9631 51.9628 45.9631 51.9787 45.9644C52.0516 45.9644 52.1216 45.9928 52.1731 46.0435C52.2247 46.0941 52.2537 46.1628 52.2537 46.2344V49.4889L52.404 50.3763L52.25 49.4889ZM51.6267 44.1904L48.51 44.7007C48.0173 44.7805 47.5696 45.0299 47.2471 45.4043C46.9246 45.7786 46.7484 46.2535 46.75 46.7438V49.1856L45.8333 49.3656V38.6003L53.1667 37.1603V44.5405C52.7199 44.2301 52.1669 44.1044 51.6267 44.1904Z" fill="#FB285E"/>
</svg>
