<svg width="44" height="53" viewBox="0 0 44 53" fill="none" xmlns="http://www.w3.org/2000/svg">
<path d="M21.9814 0.544922C21.9251 0.549653 21.8693 0.555816 21.8142 0.563388C21.435 0.584179 21.0812 0.668829 20.8108 0.803445L2.97297 9.72248C2.66233 9.87991 2.48815 10.0922 2.48815 10.3134C2.48815 10.5346 2.66233 10.7468 2.97297 10.9043L3.56757 11.1997V22.0208L0.817568 27.5236C0.726781 27.7088 0.677476 27.9173 0.674128 28.1301C0.670779 28.3429 0.713493 28.5534 0.798393 28.7423C0.883292 28.9312 1.00769 29.0927 1.1603 29.212C1.31291 29.3313 1.4889 29.4047 1.6723 29.4256C1.70944 29.4277 1.74665 29.4277 1.78378 29.4256H7.72973C7.9227 29.4256 8.11232 29.3673 8.27978 29.2566C8.44724 29.1458 8.58672 28.9864 8.68438 28.7942C8.78204 28.6019 8.83448 28.3835 8.83651 28.1606C8.83854 27.9377 8.79008 27.7181 8.69595 27.5236L5.94595 22.0208V12.3815L10.1081 14.4682C10.1081 14.4743 10.1081 14.4805 10.1081 14.4866V24.6059C10.1081 28.5073 12.1831 31.9209 15.3294 33.9497C12.1224 34.3671 9.22829 35.0799 6.83784 36.0364C4.858 36.8285 3.21698 37.7906 2.00676 38.9355C0.796533 40.0803 0 41.4835 0 43.035V51.3631C0.00207378 51.6772 0.128274 51.9778 0.351063 52.1992C0.573851 52.4206 0.875142 52.5449 1.18919 52.5449H42.8108C43.1249 52.5449 43.4261 52.4206 43.6489 52.1992C43.8717 51.9778 43.9979 51.6772 44 51.3631V43.035C44 41.4835 43.2035 40.0803 41.9932 38.9355C40.783 37.7906 39.142 36.8285 37.1622 36.0364C34.7717 35.0799 31.8776 34.3671 28.6706 33.9497C31.8169 31.9209 33.8919 28.5073 33.8919 24.606V14.4867C33.8919 14.4805 33.8919 14.4744 33.8919 14.4682L41.027 10.9043C41.3377 10.7469 41.5119 10.5346 41.5119 10.3134C41.5119 10.0922 41.3377 9.87994 41.027 9.72251L23.1892 0.803445C23.0329 0.722027 22.8454 0.657177 22.6379 0.612762C22.4304 0.568348 22.2071 0.545279 21.9814 0.544922ZM22 2.57617L37.4595 10.3134L22 18.0506L8.9375 11.5136H22C22.3158 11.5136 22.6186 11.3881 22.8419 11.1648C23.0652 10.9414 23.1907 10.6385 23.1907 10.3226C23.1907 10.0067 23.0652 9.70376 22.8419 9.4804C22.6186 9.25703 22.3158 9.13157 22 9.13157H8.90034L22 2.57617ZM12.4865 15.6685L20.8108 19.8233C21.1262 19.981 21.554 20.0696 22 20.0696C22.446 20.0696 22.8738 19.981 23.1892 19.8233L31.5135 15.6685V24.606C31.5135 29.5096 27.304 33.525 22 33.525C16.696 33.525 12.4865 29.5096 12.4865 24.606V15.6685ZM4.75676 24.7722L5.81588 26.8773H3.69764L4.75676 24.7722ZM22 35.9071C24.6686 35.9071 27.2035 36.1102 29.5253 36.4796L22 48.5378L14.4747 36.4796C16.7965 36.1102 19.3314 35.9071 22 35.9071ZM11.9848 36.9597C12.0113 37.0175 12.0423 37.073 12.0777 37.1258L20.2348 50.1813H2.37838V43.035C2.37838 42.287 2.74595 41.5004 3.64189 40.6529C4.53784 39.8053 5.94355 38.9484 7.72973 38.2338C8.97368 37.7361 10.4162 37.3153 11.9848 36.9597ZM32.0338 36.9597C33.5953 37.3146 35.031 37.738 36.2703 38.2338C38.0564 38.9484 39.4622 39.8053 40.3581 40.6529C41.2541 41.5004 41.6216 42.287 41.6216 43.035V50.1813H23.7652L31.9223 37.1258C31.9641 37.0737 32.0014 37.0181 32.0338 36.9597Z" fill="#FB285E"/>
</svg>
